<?xml version="1.0" encoding="UTF-8"?>
<svg version="1.1" xmlns="http://www.w3.org/2000/svg" width="32" height="32">
<path d="M0 0 C0.99 0 1.98 0 3 0 C2.25 6.625 2.25 6.625 0 10 C-0.24682644 13.20874376 0.08795896 15.92186148 1 19 C-0.98 19.99 -0.98 19.99 -3 21 C-3.66 20.34 -4.32 19.68 -5 19 C-4.625 15.875 -4.625 15.875 -4 13 C-5.32 13.33 -6.64 13.66 -8 14 C-8 12.68 -8 11.36 -8 10 C-7.236875 9.566875 -6.47375 9.13375 -5.6875 8.6875 C-1.95710421 6.34515846 -1.46580055 4.08881207 0 0 Z " fill="#5B3F32" transform="translate(27,2)"/>
<path d="M0 0 C0.99 0 1.98 0 3 0 C3.24234375 0.55429687 3.4846875 1.10859375 3.734375 1.6796875 C4.06953125 2.40414063 4.4046875 3.12859375 4.75 3.875 C5.07484375 4.59429688 5.3996875 5.31359375 5.734375 6.0546875 C7.21929686 8.3370674 8.50415408 9.00375898 11 10 C11 11.32 11 12.64 11 14 C9.68 13.67 8.36 13.34 7 13 C7.33 14.98 7.66 16.96 8 19 C6.02 19.99 6.02 19.99 4 21 C3.34 20.34 2.68 19.68 2 19 C2.12890625 17.01171875 2.12890625 17.01171875 2.5625 14.6875 C3.17042254 10.36986829 2.51480681 8.62132181 0 5 C-0.1875 2.1875 -0.1875 2.1875 0 0 Z " fill="#5B3F32" transform="translate(2,2)"/>
<path d="M0 0 C1.32 0 2.64 0 4 0 C3.96519531 0.93972656 3.96519531 0.93972656 3.9296875 1.8984375 C3.91164063 2.71570313 3.89359375 3.53296875 3.875 4.375 C3.85179687 5.18710937 3.82859375 5.99921875 3.8046875 6.8359375 C3.78629949 9.21342243 3.78629949 9.21342243 6 11 C6.25 13.5 6.25 13.5 6 16 C5.34 16.66 4.68 17.32 4 18 C-0.55555556 17.44444444 -0.55555556 17.44444444 -2 16 C-2.1875 13.5625 -2.1875 13.5625 -2 11 C-1.34 10.34 -0.68 9.68 0 9 C0.24253813 6.78927023 0.24253813 6.78927023 0.125 4.375 C0.10695313 3.55773437 0.08890625 2.74046875 0.0703125 1.8984375 C0.04710937 1.27195312 0.02390625 0.64546875 0 0 Z M1 12 C1 15 1 15 1 15 Z " fill="#5C4032" transform="translate(14,12)"/>
</svg>
