<?xml version="1.0" encoding="UTF-8"?>
<svg version="1.1" xmlns="http://www.w3.org/2000/svg" width="64" height="64">
<path d="M0 0 C1.21746929 0.8199283 2.42689538 1.65202641 3.625 2.5 C4.98625 3.428125 4.98625 3.428125 6.375 4.375 C11.16352139 8.89749242 13.38374452 13.8654743 13.625 20.5 C13.25375 21.551875 12.8825 22.60375 12.5 23.6875 C12.21125 24.615625 11.9225 25.54375 11.625 26.5 C12.62366794 27.83433134 13.62382253 29.16755058 14.625 30.5 C15.64489908 34.84565695 15.53613411 38.83668353 13.37109375 42.7890625 C8.43049784 48.91035766 2.19362712 51.83303835 -5.375 53.5 C-18.33896134 54.58469382 -30.63648216 54.5839913 -41 45.875 C-44.45346253 42.64706971 -45.58145611 40.61573386 -45.875 35.875 C-45.875 30.30461799 -43.73339446 27.74076904 -39.90625 23.8984375 C-39.4009375 23.43695312 -38.895625 22.97546875 -38.375 22.5 C-38.79652344 21.94570313 -39.21804687 21.39140625 -39.65234375 20.8203125 C-40.47412109 19.73363281 -40.47412109 19.73363281 -41.3125 18.625 C-41.85777344 17.90570312 -42.40304688 17.18640625 -42.96484375 16.4453125 C-46.12602261 12.08446188 -46.19787202 7.74287027 -45.375 2.5 C-43.27610076 -1.48718229 -40.83496477 -3.86300219 -36.70703125 -5.6640625 C-23.92518804 -8.87076174 -11.19473409 -6.69610947 0 0 Z M-33.375 -2.5 C-35.44691119 -0.71429126 -35.44691119 -0.71429126 -36.375 1.5 C-36.375 2.49 -36.375 3.48 -36.375 4.5 C-35.68664063 4.34144531 -34.99828125 4.18289063 -34.2890625 4.01953125 C-21.49963183 1.73937806 -10.8020134 4.29398499 -0.03125 11.25390625 C1.6843226 12.54463186 3.14725337 13.94566284 4.625 15.5 C5.05044641 12.59278285 5.07364742 10.37428727 3.7109375 7.71875 C-1.85554078 0.29677895 -10.86605328 -2.18571066 -19.625 -3.9375 C-24.82383588 -4.65293613 -28.49151726 -4.4533931 -33.375 -2.5 Z M-40.375 0.5 C-42.86857554 4.24036331 -43.23419301 7.17307304 -42.375 11.5 C-38.2709232 19.84859729 -30.36282974 24.4840699 -22 27.8125 C-13.53648039 30.63761339 -4.88691321 31.6684184 3.625 28.5 C6.99695995 26.4911728 8.31109065 25.12781869 10.0625 21.625 C10.725787 17.94007224 10.08352649 15.90322849 8.625 12.5 C8.398125 13.056875 8.17125 13.61375 7.9375 14.1875 C5.66899551 18.18438886 3.00600054 21.03966649 -1.375 22.5 C-12.62164158 23.41350884 -23.87353555 22.15207905 -32.9765625 14.9140625 C-37.00000699 10.84566332 -38.82031119 6.18556032 -39.375 0.5 C-39.705 0.5 -40.035 0.5 -40.375 0.5 Z M-34.375 7.5 C-32.08875475 12.7697953 -28.66080919 15.35908106 -23.375 17.5 C-18.09679589 18.38155269 -12.75016069 18.35673902 -7.41259766 18.42041016 C-4.68196974 18.5270702 -2.05161666 18.96638424 0.625 19.5 C1.06329135 15.65673463 1.06329135 15.65673463 -0.73828125 13.9375 C-9.84331359 7.22276673 -23.55608402 1.10584162 -34.375 7.5 Z M-35.375 25.5 C-37.72473818 27.39755144 -37.72473818 27.39755144 -37.5 30.625 C-37.45875 31.57375 -37.4175 32.5225 -37.375 33.5 C-34.26301935 32.00163895 -31.3215385 30.30066242 -28.375 28.5 C-31.43080974 25.91222792 -31.43080974 25.91222792 -35.375 25.5 Z M7.625 28.5 C7.398125 29.7375 7.17125 30.975 6.9375 32.25 C6.16014831 35.28971316 5.68500965 36.43469538 3.5 38.8125 C-3.04361147 42.65331543 -8.76844537 44.03773519 -16.25 43.9375 C-17.03648926 43.93065186 -17.82297852 43.92380371 -18.63330078 43.91674805 C-26.15482349 43.70958418 -32.41150774 42.46349226 -37.875 37 C-39.155108 34.86648667 -40.36451989 32.77358025 -41.375 30.5 C-42.7988996 31.70858552 -42.7988996 31.70858552 -42.6875 35.25 C-42.6193002 38.19308377 -42.37551994 39.49898375 -41 42.1875 C-32.63551393 49.55621392 -22.15281247 51.87848236 -11.1640625 51.34375 C-3.08219949 50.26339813 4.09025257 47.61394417 10.25 42.1875 C12.22519507 38.32689145 12.04301566 35.81949517 11.625 31.5 C10.965 30.51 10.305 29.52 9.625 28.5 C8.965 28.5 8.305 28.5 7.625 28.5 Z M-30.6875 33 C-31.38488281 33.4640625 -32.08226562 33.928125 -32.80078125 34.40625 C-33.32027344 34.7671875 -33.83976562 35.128125 -34.375 35.5 C-30.37566758 40.11461433 -26.60853138 41.32342719 -20.5703125 41.80078125 C-19.21367112 41.81992607 -17.85673255 41.8234155 -16.5 41.8125 C-15.43990723 41.80621582 -15.43990723 41.80621582 -14.35839844 41.79980469 C-7.70599341 41.65552087 -2.98616718 40.78477128 2.125 36.3125 C2.62 35.714375 3.115 35.11625 3.625 34.5 C1.83833057 32.26968891 1.83833057 32.26968891 -0.5546875 32.375 C-1.88886719 32.436875 -1.88886719 32.436875 -3.25 32.5 C-8.56240397 32.61184008 -13.44175323 31.94796164 -18.6484375 30.9375 C-23.61320259 30.14086148 -26.45801713 30.13255398 -30.6875 33 Z " fill="#5A3E31" transform="translate(47.375,8.5)"/>
</svg>
