<?xml version="1.0" encoding="UTF-8"?>
<svg version="1.1" xmlns="http://www.w3.org/2000/svg" width="53" height="53">
<path d="M0 0 C0.99 0 1.98 0 3 0 C3 0.66 3 1.32 3 2 C2.01 2.495 2.01 2.495 1 3 C0.21949479 8.11664528 0.16382387 10.71209653 3.0390625 15.140625 C3.87242228 16.2454993 4.71382221 17.34434779 5.5625 18.4375 C9.88441345 24.10453635 9.88441345 24.10453635 10.33984375 27.6328125 C10 30.0625 10 30.0625 9.47265625 32.43359375 C8.58383312 37.259683 9.45903345 42.15626878 10 47 C8.34385343 47.38218767 6.67542976 47.71395102 5 48 C4.505 47.505 4.505 47.505 4 47 C4.06482148 44.91392691 4.20244935 42.82993487 4.375 40.75 C4.46523438 39.61046875 4.55546875 38.4709375 4.6484375 37.296875 C4.94961307 34.47251739 5.38555321 31.77021771 6 29 C4.02 29 2.04 29 0 29 C0.165 30.03125 0.33 31.0625 0.5 32.125 C0.93341941 35.48400046 1 38.62506169 1 42 C1.33 42.66 1.66 43.32 2 44 C2.039992 45.99960012 2.04346799 48.00047242 2 50 C-2.75 51.125 -2.75 51.125 -5 50 C-4.54177532 46.53058454 -4.10868317 43.32604951 -3 40 C-3.495 38.515 -3.495 38.515 -4 37 C-3.67 36.01 -3.34 35.02 -3 34 C-3 32.68 -3 31.36 -3 30 C-4.98 29.67 -6.96 29.34 -9 29 C-8.855625 29.845625 -8.71125 30.69125 -8.5625 31.5625 C-8.17805087 33.91191133 -7.82528698 36.26666942 -7.5 38.625 C-7.08985429 41.8459911 -7.08985429 41.8459911 -6.375 44.3125 C-6 46 -6 46 -7 48 C-8.65 48 -10.3 48 -12 48 C-13.17128354 43.7052937 -12.67710015 40.36353427 -12 36 C-11.87555022 32.26650668 -11.81817548 29.54547357 -13 26 C-11.64757628 23.47997402 -10.26741903 21.18119063 -8.6875 18.8125 C-8.27048828 18.15830078 -7.85347656 17.50410156 -7.42382812 16.83007812 C-6.34387894 15.17828982 -5.17772995 13.58355519 -4 12 C-3.34 12 -2.68 12 -2 12 C-2.4125 11.13375 -2.825 10.2675 -3.25 9.375 C-4 6 -4 6 -2.3125 2.625 C-1.1678125 1.325625 -1.1678125 1.325625 0 0 Z " fill="#5B3F32" transform="translate(14,1)"/>
<path d="M0 0 C0.66 0 1.32 0 2 0 C1.67 0.7425 1.34 1.485 1 2.25 C-0.22782871 5.13883312 -0.22782871 5.13883312 0 9 C-0.33 9.99 -0.66 10.98 -1 12 C-0.34 12 0.32 12 1 12 C2.68264303 14.15485901 4.19303646 16.2826924 5.6875 18.5625 C6.11611328 19.17158203 6.54472656 19.78066406 6.98632812 20.40820312 C9.26905731 23.88192144 10.03438546 25.42690902 9.77734375 29.7109375 C9.39255859 31.33902344 9.39255859 31.33902344 9 33 C8.71441462 37.77935534 9.19561556 42.28860543 10 47 C9 48 9 48 6.4375 48.0625 C5.633125 48.041875 4.82875 48.02125 4 48 C3.04361882 45.41777082 2.85887157 44.33870822 3.9375 41.75 C4.97250058 39.07117496 5.11324518 37.6187087 5.0625 34.8125 C5 31 5 31 6 29 C4.02 29.33 2.04 29.66 0 30 C-0.1754116 33.71312894 -0.1754116 33.71312894 0.5625 36.0625 C1 38 1 38 0 41 C0.4640625 41.928125 0.4640625 41.928125 0.9375 42.875 C2.20298687 45.40597375 2.15515144 47.20727405 2 50 C0.0085944 50.38133299 -1.99279077 50.71325582 -4 51 C-5 50 -5 50 -5.125 47.25 C-5 44 -5 44 -4.5 41.625 C-4.04453676 39.23381801 -3.9651206 37.23225863 -4 34.8125 C-4 31 -4 31 -3 29 C-4.98 29 -6.96 29 -9 29 C-8.855625 29.7425 -8.71125 30.485 -8.5625 31.25 C-7.77810422 36.47930517 -7.40084781 41.72927776 -7 47 C-8.65614657 47.38218767 -10.32457024 47.71395102 -12 48 C-12.33 47.67 -12.66 47.34 -13 47 C-12.90864492 44.91356779 -12.75136745 42.82987361 -12.5625 40.75 C-11.61139899 33.81243139 -11.61139899 33.81243139 -12.77734375 27.0859375 C-13.19945314 23.13143897 -9.596413 19.94005131 -7.24804688 16.953125 C-4.34242419 13.06679764 -3.71251832 10.78690431 -4 6 C-2.125 2.625 -2.125 2.625 0 0 Z " fill="#5B3F32" transform="translate(42,1)"/>
</svg>
