<svg width="36" height="34" viewBox="0 0 36 34" fill="none" xmlns="http://www.w3.org/2000/svg">
<mask id="path-1-inside-1_1784_373" fill="white">
<path d="M15.2213 31.6623C15.8552 32.2162 16.4126 32.6839 16.9678 33.1464C17.3134 33.4334 17.6559 33.7183 18.0048 34C18.3302 33.73 18.6823 33.443 19.0333 33.1485C19.5928 32.6829 20.1458 32.2162 20.6947 31.7463C27.8581 25.1342 35.8904 17.7289 36 8.53568C35.9635 7.74864 35.8426 6.96779 35.6394 6.20654C35.4204 5.37019 35.1131 4.55949 34.7226 3.7881C33.7111 1.9352 31.2063 0.393777 28.6505 0.0823031C23.8036 -0.506627 21.5073 2.14675 19.2237 5.42945L18.0027 7.1771L16.7827 5.42945C14.7119 2.45929 12.6718 0.00257448 8.66523 0.00257448C8.24829 0.00257448 7.81221 0.029151 7.3538 0.0833666C4.80007 0.393777 2.29208 1.93626 1.25825 3.83275C0.885988 4.57263 0.57754 5.38693 0.363755 6.2076C0.156351 7.00064 0.0340355 7.81068 0 8.61541C0.11487 17.73 8.14087 25.132 15.2213 31.6634"/>
</mask>
<path d="M15.2213 31.6623C15.8552 32.2162 16.4126 32.6839 16.9678 33.1464C17.3134 33.4334 17.6559 33.7183 18.0048 34C18.3302 33.73 18.6823 33.443 19.0333 33.1485C19.5928 32.6829 20.1458 32.2162 20.6947 31.7463C27.8581 25.1342 35.8904 17.7289 36 8.53568C35.9635 7.74864 35.8426 6.96779 35.6394 6.20654C35.4204 5.37019 35.1131 4.55949 34.7226 3.7881C33.7111 1.9352 31.2063 0.393777 28.6505 0.0823031C23.8036 -0.506627 21.5073 2.14675 19.2237 5.42945L18.0027 7.1771L16.7827 5.42945C14.7119 2.45929 12.6718 0.00257448 8.66523 0.00257448C8.24829 0.00257448 7.81221 0.029151 7.3538 0.0833666C4.80007 0.393777 2.29208 1.93626 1.25825 3.83275C0.885988 4.57263 0.57754 5.38693 0.363755 6.2076C0.156351 7.00064 0.0340355 7.81068 0 8.61541C0.11487 17.73 8.14087 25.132 15.2213 31.6634" fill="white"/>
<path d="M16.9678 33.1464L15.6878 34.6831L15.6901 34.6851L16.9678 33.1464ZM18.0048 34L16.7483 35.556L18.0219 36.5845L19.2818 35.5392L18.0048 34ZM19.0333 33.1485L17.7539 31.6112L17.7479 31.6163L19.0333 33.1485ZM20.6947 31.7463L21.9954 33.2656L22.0237 33.2413L22.0512 33.216L20.6947 31.7463ZM36 8.53568L37.9999 8.55951L38.0005 8.50126L37.9979 8.44307L36 8.53568ZM35.6394 6.20654L33.7046 6.71315L33.7071 6.72233L35.6394 6.20654ZM34.7226 3.7881L36.507 2.88478L36.493 2.85706L36.4781 2.82979L34.7226 3.7881ZM28.6505 0.0823031L28.8924 -1.90301L28.8917 -1.90309L28.6505 0.0823031ZM19.2237 5.42945L20.8632 6.57491L20.8655 6.57156L19.2237 5.42945ZM18.0027 7.1771L16.3627 8.32189L18.0019 10.6702L19.6422 8.32256L18.0027 7.1771ZM16.7827 5.42945L15.1421 6.57331L15.1427 6.57423L16.7827 5.42945ZM7.3538 0.0833666L7.1189 -1.9028L7.11247 -1.90202L7.3538 0.0833666ZM1.25825 3.83275L-0.49778 2.87548L-0.513548 2.90441L-0.528355 2.93384L1.25825 3.83275ZM0.363755 6.2076L2.29868 6.71364L2.29916 6.71178L0.363755 6.2076ZM0 8.61541L-1.99821 8.5309L-2.00053 8.58573L-1.99984 8.64061L0 8.61541ZM13.9054 33.1685C14.5571 33.7378 15.1285 34.2173 15.6878 34.6831L18.2477 31.6096C17.6966 31.1506 17.1534 30.6946 16.5372 30.1562L13.9054 33.1685ZM15.6901 34.6851C16.0327 34.9695 16.3866 35.264 16.7483 35.556L19.2613 32.444C18.9253 32.1726 18.5942 31.8973 18.2454 31.6077L15.6901 34.6851ZM19.2818 35.5392C19.5863 35.2866 19.9653 34.9772 20.3187 34.6807L17.7479 31.6163C17.3993 31.9087 17.0742 32.1734 16.7278 32.4608L19.2818 35.5392ZM20.3127 34.6857C20.8791 34.2144 21.4392 33.7417 21.9954 33.2656L19.394 30.2271C18.8524 30.6907 18.3064 31.1514 17.7539 31.6112L20.3127 34.6857ZM22.0512 33.216C25.6056 29.9351 29.541 26.3122 32.5831 22.3214C35.6354 18.3172 37.9379 13.7551 37.9999 8.55951L34.0001 8.51185C33.9525 12.5096 32.1841 16.2467 29.4019 19.8965C26.6097 23.5595 22.9471 26.9454 19.3381 30.2767L22.0512 33.216ZM37.9979 8.44307C37.9547 7.51303 37.8119 6.5903 37.5718 5.69074L33.7071 6.72233C33.8734 7.34528 33.9723 7.98426 34.0021 8.6283L37.9979 8.44307ZM37.5742 5.69993C37.3193 4.72638 36.9615 3.7827 36.507 2.88478L32.9382 4.69141C33.2647 5.33628 33.5216 6.014 33.7047 6.71314L37.5742 5.69993ZM36.4781 2.82979C35.0927 0.292044 31.9422 -1.53134 28.8924 -1.90301L28.4085 2.06762C30.4704 2.31889 32.3295 3.57836 32.9671 4.7464L36.4781 2.82979ZM28.8917 -1.90309C26.0157 -2.25255 23.738 -1.63748 21.8484 -0.347949C20.0522 0.877939 18.7291 2.6381 17.5819 4.28734L20.8655 6.57156C22.0018 4.9381 22.9687 3.73022 24.1032 2.95598C25.1445 2.24538 26.4383 1.82823 28.4092 2.0677L28.8917 -1.90309ZM17.5842 4.28399L16.3632 6.03165L19.6422 8.32256L20.8632 6.5749L17.5842 4.28399ZM19.6426 6.03232L18.4227 4.28467L15.1427 6.57423L16.3627 8.32189L19.6426 6.03232ZM18.4233 4.28559C16.3375 1.29401 13.7693 -1.99743 8.66523 -1.99743V2.00257C11.5744 2.00257 13.0862 3.62456 15.1421 6.57331L18.4233 4.28559ZM8.66523 -1.99743C8.16325 -1.99743 7.64849 -1.96542 7.1189 -1.90279L7.58869 2.06952C7.97593 2.02373 8.33334 2.00257 8.66523 2.00257V-1.99743ZM7.11247 -1.90202C4.05687 -1.53061 0.90688 0.298736 -0.49778 2.87548L3.01428 4.79001C3.67728 3.57379 5.54327 2.31816 7.59513 2.06875L7.11247 -1.90202ZM-0.528355 2.93384C-0.963754 3.7992 -1.32219 4.74578 -1.57165 5.70343L2.29916 6.71178C2.47727 6.02808 2.73573 5.34606 3.04486 4.73166L-0.528355 2.93384ZM-1.57117 5.70156C-1.81402 6.63014 -1.95806 7.58144 -1.99821 8.5309L1.99821 8.69992C2.02613 8.03992 2.12672 7.37113 2.29868 6.71364L-1.57117 5.70156ZM-1.99984 8.64061C-1.93483 13.7991 0.369751 18.341 3.4089 22.3218C6.43937 26.2912 10.3516 29.8923 13.8653 33.1335L16.5774 30.1933C13.0106 26.9031 9.36959 23.5376 6.58824 19.8945C3.81555 16.2627 2.0497 12.5464 1.99984 8.59021L-1.99984 8.64061Z" fill="black" mask="url(#path-1-inside-1_1784_373)"/>
</svg>
