<?xml version="1.0" encoding="UTF-8"?>
<svg version="1.1" xmlns="http://www.w3.org/2000/svg" width="64" height="64">
<path d="M0 0 C0.69867188 -0.01160156 1.39734375 -0.02320312 2.1171875 -0.03515625 C6.57065179 -0.00994796 9.49843353 0.57902225 13 3.375 C13.5878125 4.798125 13.5878125 4.798125 14.1875 6.25 C16.5936117 10.39846845 19.35172212 11.22089484 23.6171875 13.1484375 C27.33183983 15.06057001 29.17327636 17.72155271 31 21.375 C32.14583095 31.31179626 28.85595252 38.70382314 22.76171875 46.39453125 C16.44222316 53.49870922 9.68387034 59.56301852 0.0625 60.9375 C-9.23752292 60.35738161 -16.89840893 52.74593126 -23 46.375 C-28.63352234 39.32438544 -31.51204672 32.88471903 -31.3203125 23.77734375 C-30.72722031 19.32915236 -28.37478006 16.65496764 -25.1875 13.6875 C-23 12.375 -23 12.375 -19.4375 11.0625 C-15.28986604 9.02638878 -14.87211434 7.45961311 -13 3.375 C-8.90165962 0.10553745 -5.0550664 -0.08394022 0 0 Z M-11 4.375 C-11 5.365 -11 6.355 -11 7.375 C-4.53203651 10.09835305 1.91392525 10.22633096 8.625 8.375 C9.40875 8.045 10.1925 7.715 11 7.375 C11 6.385 11 5.395 11 4.375 C7.19471609 2.61225819 4.1839474 2.10365333 0 2.125 C-1.010625 2.11984375 -2.02125 2.1146875 -3.0625 2.109375 C-6.0703976 2.38136574 -8.27306793 3.11178882 -11 4.375 Z M-15.9375 10.875 C-18.35796541 13.2687353 -18.35796541 13.2687353 -18 16.75 C-15.96274135 24.13506262 -12.67701252 28.41296213 -6.75 33.1875 C-2.77580143 34.9036312 0.73800278 35.04635885 5 34.375 C11.1448361 31.30258195 15.309839 26.56109928 17.8125 20.1875 C19.14869183 16.56314734 19.14869183 16.56314734 19 13.375 C17.02 12.715 15.04 12.055 13 11.375 C13 10.715 13 10.055 13 9.375 C12.154375 9.53742187 11.30875 9.69984375 10.4375 9.8671875 C6.90536223 10.38898058 3.56865371 10.50782599 0 10.5 C-1.175625 10.50257812 -2.35125 10.50515625 -3.5625 10.5078125 C-7 10.375 -7 10.375 -10.25390625 9.7734375 C-13.13214084 9.08574339 -13.13214084 9.08574339 -15.9375 10.875 Z M-26.39453125 18.48046875 C-28.71883752 21.22326325 -29.15290478 23.41009717 -29.25390625 26.95703125 C-28.15993845 37.37497072 -21.43967304 44.86142006 -13.63671875 51.3359375 C-11.787491 52.73517555 -9.9259023 54.08406821 -8 55.375 C-6.86194267 51.960828 -7.13470817 51.40201781 -8.375 48.1875 C-9.92328794 43.87491716 -10.5858367 39.9307963 -11 35.375 C-10.01 35.045 -9.02 34.715 -8 34.375 C-8.45890625 34.04628906 -8.9178125 33.71757813 -9.390625 33.37890625 C-15.73030587 28.46432171 -18.96755538 22.37644584 -20 14.375 C-22.44787838 14.375 -24.66645664 16.95905048 -26.39453125 18.48046875 Z M21 15.375 C20.76925781 16.09945313 20.53851563 16.82390625 20.30078125 17.5703125 C18.28584407 23.54344642 16.40646288 27.85555089 12 32.375 C11.401875 32.99375 10.80375 33.6125 10.1875 34.25 C9.795625 34.62125 9.40375 34.9925 9 35.375 C9.99 35.375 10.98 35.375 12 35.375 C11.54743078 39.59897936 11.00038719 43.58896153 9.875 47.6875 C8.67857214 51.28857246 8.67857214 51.28857246 10 54.375 C22.43867209 43.89067838 22.43867209 43.89067838 29 29.375 C29.27956534 24.32588052 28.74920913 21.31631404 25.5625 17.3125 C23.26953428 15.17396391 23.26953428 15.17396391 21 15.375 Z M-4 36.375 C-3.34 37.035 -2.68 37.695 -2 38.375 C-2 37.715 -2 37.055 -2 36.375 C-2.66 36.375 -3.32 36.375 -4 36.375 Z M3 36.375 C3.33 37.035 3.66 37.695 4 38.375 C4.33 37.715 4.66 37.055 5 36.375 C4.34 36.375 3.68 36.375 3 36.375 Z M2 47.375 C2 48.035 2 48.695 2 49.375 C2.66 49.045 3.32 48.715 4 48.375 C3.34 48.045 2.68 47.715 2 47.375 Z M-2 48.375 C-1 50.375 -1 50.375 -1 50.375 Z M0 51.375 C0 52.035 0 52.695 0 53.375 C-1.65 54.035 -3.3 54.695 -5 55.375 C-5 56.035 -5 56.695 -5 57.375 C-2.19084526 58.77957737 -0.11189466 58.62395157 3 58.375 C5.34261608 56.99573227 5.34261608 56.99573227 7 55.375 C3.535 53.395 3.535 53.395 0 51.375 Z " fill="#5A3E31" transform="translate(32,1.625)"/>
</svg>
