<?xml version="1.0" encoding="UTF-8"?>
<svg version="1.1" xmlns="http://www.w3.org/2000/svg" width="50" height="50">
<path d="M0 0 C1.25554688 -0.03738281 2.51109375 -0.07476562 3.8046875 -0.11328125 C7.125 0.3125 7.125 0.3125 9.015625 2.1796875 C10.125 4.3125 10.125 4.3125 11 6.75 C12.43548439 10.01971444 14.5815933 11.83112761 17.125 14.3125 C21.39209297 20.17975284 21.06936036 26.33042587 20.125 33.3125 C18.07048464 38.48521599 14.50602585 43.25962098 9.3671875 45.71484375 C3.13983557 47.37474766 -3.61025175 47.61747705 -9.640625 45.20703125 C-14.32858817 42.31198115 -18.41667967 38.78358413 -19.875 33.3125 C-20.83161971 26.28600122 -21.0171793 20.15724266 -17.0625 14.0625 C-15.09214648 11.47428253 -13.63081759 10.14971172 -10.875 8.3125 C-9.82147157 6.00284152 -8.81780904 3.6695226 -7.875 1.3125 C-5.93759347 -0.62490653 -2.57340128 0.0499945 0 0 Z M-2.875 2.3125 C-2.545 3.3025 -2.215 4.2925 -1.875 5.3125 C-0.555 5.3125 0.765 5.3125 2.125 5.3125 C2.455 4.3225 2.785 3.3325 3.125 2.3125 C1.145 2.3125 -0.835 2.3125 -2.875 2.3125 Z M-3.875 7.3125 C-2.885 8.6325 -1.895 9.9525 -0.875 11.3125 C2.24697478 10.0035428 2.24697478 10.0035428 4.125 7.3125 C1.485 7.3125 -1.155 7.3125 -3.875 7.3125 Z M-11.875 19.3125 C-13.75355086 23.06960172 -13.53879578 27.23228738 -12.875 31.3125 C-10.87488833 34.74653788 -8.45148506 37.52425747 -4.875 39.3125 C-0.57287555 39.93383059 3.45895487 40.28286679 7.3046875 38.04296875 C10.38424341 35.41704037 12.83422689 33.32582773 13.43359375 29.17578125 C13.67831313 24.33330389 13.56274541 21.11248279 10.4375 17.25 C7.78342119 14.60832342 5.96548176 13.40617029 2.125 13.3125 C1.01125 13.168125 -0.1025 13.02375 -1.25 12.875 C-6.14181566 13.46539155 -8.60695756 15.74904129 -11.875 19.3125 Z M-15.875 18.3125 C-14.875 20.3125 -14.875 20.3125 -14.875 20.3125 Z M15.125 18.3125 C16.125 20.3125 16.125 20.3125 16.125 20.3125 Z M-16.875 21.3125 C-16.875 24.6125 -16.875 27.9125 -16.875 31.3125 C-16.545 31.3125 -16.215 31.3125 -15.875 31.3125 C-15.875 28.0125 -15.875 24.7125 -15.875 21.3125 C-16.205 21.3125 -16.535 21.3125 -16.875 21.3125 Z M16.125 21.3125 C16.125 24.6125 16.125 27.9125 16.125 31.3125 C16.455 31.3125 16.785 31.3125 17.125 31.3125 C17.125 28.0125 17.125 24.7125 17.125 21.3125 C16.795 21.3125 16.465 21.3125 16.125 21.3125 Z M-15.875 32.3125 C-14.875 34.3125 -14.875 34.3125 -14.875 34.3125 Z M15.125 32.3125 C16.125 34.3125 16.125 34.3125 16.125 34.3125 Z M-14.875 34.3125 C-13.875 36.3125 -13.875 36.3125 -13.875 36.3125 Z M14.125 34.3125 C15.125 36.3125 15.125 36.3125 15.125 36.3125 Z M-4.875 42.3125 C-4.875 42.6425 -4.875 42.9725 -4.875 43.3125 C-1.575 43.3125 1.725 43.3125 5.125 43.3125 C5.125 42.9825 5.125 42.6525 5.125 42.3125 C1.825 42.3125 -1.475 42.3125 -4.875 42.3125 Z " fill="#5A3E31" transform="translate(24.875,1.6875)"/>
</svg>
