<?xml version="1.0" encoding="UTF-8"?>
<svg version="1.1" xmlns="http://www.w3.org/2000/svg" width="64" height="64">
<path d="M0 0 C0 0.66 0 1.32 0 2 C0.63808594 2.06058594 1.27617188 2.12117187 1.93359375 2.18359375 C3.17302734 2.30927734 3.17302734 2.30927734 4.4375 2.4375 C5.67306641 2.55931641 5.67306641 2.55931641 6.93359375 2.68359375 C9 3 9 3 10 4 C10.04443347 5.99950636 10.03920815 8.00038436 10 10 C10 11.32 10 12.64 10 14 C10 24 10 34 10 44 C10.020625 45.051875 10.04125 46.10375 10.0625 47.1875 C10 50 10 50 9 51 C7.33382885 51.04063832 5.66611905 51.042721 4 51 C4.66 49.68 5.32 48.36 6 47 C5.01 46.505 5.01 46.505 4 46 C1.77087539 40.55102872 1.59737498 36.61050008 3 31 C2.67 30.67 2.34 30.34 2 30 C1.95556653 28.00049364 1.96079185 25.99961564 2 24 C2 21.66657366 1.9861025 19.33292012 1.9375 17 C2 14 2 14 2.5625 11.9375 C3.13360672 9.40831308 2.62202951 7.48811803 2 5 C1.01 5.66 0.02 6.32 -1 7 C-5.07490752 7.33957563 -6.53001271 7.31332486 -10 5 C-10 5.7425 -10 6.485 -10 7.25 C-10 16.16666667 -10 25.08333333 -10 34 C-9.95875 34.99 -9.9175 35.98 -9.875 37 C-9.99890497 39.97371927 -10.46225895 41.50117079 -12 44 C-11.34 44 -10.68 44 -10 44 C-10 45.98 -10 47.96 -10 50 C-13.4019487 52.09350689 -16.05272412 52.17942163 -20 52 C-20 52.66 -20 53.32 -20 54 C-23.465 54.495 -23.465 54.495 -27 55 C-27.495 53.515 -27.495 53.515 -28 52 C-28.95712891 51.90912109 -28.95712891 51.90912109 -29.93359375 51.81640625 C-30.75988281 51.73261719 -31.58617187 51.64882813 -32.4375 51.5625 C-33.26121094 51.48128906 -34.08492187 51.40007813 -34.93359375 51.31640625 C-37 51 -37 51 -38 50 C-38.04443347 48.00049364 -38.03920815 45.99961564 -38 44 C-38 42.68 -38 41.36 -38 40 C-38 30 -38 20 -38 10 C-38.020625 8.948125 -38.04125 7.89625 -38.0625 6.8125 C-38 4 -38 4 -37 3 C-35.33382885 2.95936168 -33.66611905 2.957279 -32 3 C-32.66 4.32 -33.32 5.64 -34 7 C-33.34 7.33 -32.68 7.66 -32 8 C-29.78558383 12.66192878 -30.02310285 16.20834106 -30.80859375 21.14453125 C-30.87175781 21.75683594 -30.93492188 22.36914062 -31 23 C-30.67 23.33 -30.34 23.66 -30 24 C-29.84145069 27.56735954 -30.10882809 30.56262262 -31 34 C-30.67 34.33 -30.34 34.66 -30 35 C-29.86104029 37.57075469 -29.86956015 39.60868046 -30.6875 42.0625 C-31.2469602 44.163685 -31.2469602 44.163685 -29.5625 46.25 C-28.7890625 47.11625 -28.7890625 47.11625 -28 48 C-27.505 47.505 -27.505 47.505 -27 47 C-22.96839809 46.73706944 -21.44107266 46.70595156 -18 49 C-18 48.2575 -18 47.515 -18 46.75 C-18 32.5 -18 18.25 -18 4 C-14.5980513 1.90649311 -11.94727588 1.82057837 -8 2 C-8 1.34 -8 0.68 -8 0 C-5.13822943 -1.43088528 -3.06624227 -0.59991697 0 0 Z " fill="#5A3E31" transform="translate(46,5)"/>
<path d="M0 0 C0.99 0 1.98 0 3 0 C3 0.99 3 1.98 3 3 C1.68 3 0.36 3 -1 3 C-0.67 2.01 -0.34 1.02 0 0 Z " fill="#5E3C2C" transform="translate(56,4)"/>
<path d="M0 0 C0.99 0 1.98 0 3 0 C2.67 1.32 2.34 2.64 2 4 C1.34 3.67 0.68 3.34 0 3 C0 2.01 0 1.02 0 0 Z " fill="#5B3F33" transform="translate(38,54)"/>
<path d="M0 0 C0.99 0 1.98 0 3 0 C2.67 1.32 2.34 2.64 2 4 C1.34 3.67 0.68 3.34 0 3 C0 2.01 0 1.02 0 0 Z " fill="#5D3E32" transform="translate(57,44)"/>
<path d="M0 0 C0.99 0.33 1.98 0.66 3 1 C2.67 1.99 2.34 2.98 2 4 C1.34 4 0.68 4 0 4 C0 2.68 0 1.36 0 0 Z " fill="#5B4032" transform="translate(42,35)"/>
<path d="M0 0 C0.99 0 1.98 0 3 0 C3 0.99 3 1.98 3 3 C2.01 3 1.02 3 0 3 C0 2.01 0 1.02 0 0 Z " fill="#5D4132" transform="translate(19,34)"/>
<path d="M0 0 C0.99 0 1.98 0 3 0 C3 0.99 3 1.98 3 3 C2.01 3 1.02 3 0 3 C0 2.01 0 1.02 0 0 Z " fill="#5B4033" transform="translate(4,27)"/>
<path d="M0 0 C0.99 0 1.98 0 3 0 C3 0.99 3 1.98 3 3 C2.01 3 1.02 3 0 3 C0 2.01 0 1.02 0 0 Z " fill="#5B4032" transform="translate(19,9)"/>
</svg>
